<svg class="border shadow-md" viewBox="0 0 932.8 524.7" style="width: 932.8px; height: 524.7px;" xmlns="http://www.w3.org/2000/svg" preserveAspectRatio="none"><rect class="bg" id="bg" x="0" y="0" width="932.8" height="524.7" fill="#ffffff"/><g transform="rotate(0 466.4 262.35)"><path d="M -188.80 -10.36 S -164.00 -30.54&#10;            0.00 -10.36 84.40 -35.36&#10;            188.80 -10.36 273.20 -30.54&#10;            377.60 -10.36 374.40 -31.36&#10;            566.40 -10.36 650.80 -30.54&#10;            755.20 -10.36 832.00 -31.36&#10;            944.00 -10.36 1028.40 -30.54&#10;            1132.80 -10.36 1217.20 -30.54&#10;            1321.60 -10.36 h 110 V 724.7 H -188.80 Z" fill="#F6F6F6" id="-1"/><path d="M -188.80 30.00 S -130.00 4.00&#10;            0.00 30.00 62.80 7.00&#10;            188.80 30.00 226.60 9.82&#10;            377.60 30.00 462.00 9.82&#10;            566.40 30.00 650.80 0.00&#10;            755.20 30.00 839.60 5.00&#10;            944.00 30.00 966.80 -9.00&#10;            1132.80 30.00 1217.20 -2.00&#10;            1321.60 30.00 h 110 V 724.7 H -188.80 Z" fill="#e4e4e4" id="0"/><path id="1" d="M -188.80 70.36 S -176.00 50.18&#10;            0.00 70.36 76.80 41.36&#10;            188.80 70.36 273.20 50.18&#10;            377.60 70.36 443.40 50.18&#10;            566.40 70.36 578.20 38.36&#10;            755.20 70.36 839.60 46.36&#10;            944.00 70.36 1028.40 40.36&#10;            1132.80 70.36 1217.20 50.18&#10;            1321.60 70.36 h 110 V 724.7 H -188.80 Z" fill="#d2d2d2"/><path id="2" d="M -188.80 110.72 S -150.00 90.54&#10;            0.00 110.72 84.40 78.72&#10;            188.80 110.72 240.60 76.72&#10;            377.60 110.72 462.00 90.54&#10;            566.40 110.72 566.20 90.54&#10;            755.20 110.72 839.60 82.72&#10;            944.00 110.72 1028.40 90.54&#10;            1132.80 110.72 1217.20 90.54&#10;            1321.60 110.72 h 110 V 724.7 H -188.80 Z" fill="#c0c0c0"/><path id="3" d="M -188.80 151.08 S -147.00 114.08&#10;            0.00 151.08 84.40 130.90&#10;            188.80 151.08 273.20 125.08&#10;            377.60 151.08 459.40 130.90&#10;            566.40 151.08 650.80 130.90&#10;            755.20 151.08 839.60 130.90&#10;            944.00 151.08 942.80 124.08&#10;            1132.80 151.08 1163.60 130.90&#10;            1321.60 151.08 h 110 V 724.7 H -188.80 Z" fill="#aeaeae"/><path id="4" d="M -188.80 191.45 S -104.40 167.45&#10;            0.00 191.45 84.40 169.45&#10;            188.80 191.45 273.20 171.27&#10;            377.60 191.45 401.40 169.45&#10;            566.40 191.45 650.80 164.45&#10;            755.20 191.45 789.00 171.27&#10;            944.00 191.45 1011.80 163.45&#10;            1132.80 191.45 1188.60 171.27&#10;            1321.60 191.45 h 110 V 724.7 H -188.80 Z" fill="#9c9c9c"/><path id="5" d="M -188.80 231.81 S -104.40 197.81&#10;            0.00 231.81 84.40 211.63&#10;            188.80 231.81 273.20 191.81&#10;            377.60 231.81 462.00 211.63&#10;            566.40 231.81 650.80 211.63&#10;            755.20 231.81 839.60 210.81&#10;            944.00 231.81 1028.40 203.81&#10;            1132.80 231.81 1151.60 211.63&#10;            1321.60 231.81 h 110 V 724.7 H -188.80 Z" fill="#8a8a8a"/><path id="6" d="M -188.80 272.17 S -104.40 241.17&#10;            0.00 272.17 84.40 245.17&#10;            188.80 272.17 273.20 251.99&#10;            377.60 272.17 451.40 251.99&#10;            566.40 272.17 650.80 251.99&#10;            755.20 272.17 835.00 251.99&#10;            944.00 272.17 977.80 237.17&#10;            1132.80 272.17 1217.20 251.99&#10;            1321.60 272.17 h 110 V 724.7 H -188.80 Z" fill="#787878"/><path id="7" d="M -188.80 312.53 S -104.40 292.35&#10;            0.00 312.53 59.80 292.35&#10;            188.80 312.53 273.20 282.53&#10;            377.60 312.53 448.40 290.53&#10;            566.40 312.53 620.20 289.53&#10;            755.20 312.53 839.60 292.35&#10;            944.00 312.53 957.80 276.53&#10;            1132.80 312.53 1214.60 292.35&#10;            1321.60 312.53 h 110 V 724.7 H -188.80 Z" fill="#666666"/><path id="8" d="M -188.80 352.89 S -104.40 332.71&#10;            0.00 352.89 80.80 317.89&#10;            188.80 352.89 273.20 332.71&#10;            377.60 352.89 435.40 332.71&#10;            566.40 352.89 650.80 332.71&#10;            755.20 352.89 807.00 319.89&#10;            944.00 352.89 954.80 318.89&#10;            1132.80 352.89 1217.20 326.89&#10;            1321.60 352.89 h 110 V 724.7 H -188.80 Z" fill="#545454"/><path id="9" d="M -188.80 393.25 S -104.40 358.25&#10;            0.00 393.25 84.40 373.07&#10;            188.80 393.25 273.20 356.25&#10;            377.60 393.25 413.40 360.25&#10;            566.40 393.25 650.80 354.25&#10;            755.20 393.25 831.00 373.07&#10;            944.00 393.25 953.80 356.25&#10;            1132.80 393.25 1217.20 370.25&#10;            1321.60 393.25 h 110 V 724.7 H -188.80 Z" fill="#424242"/><path id="10" d="M -188.80 433.62 S -104.40 399.62&#10;            0.00 433.62 1.80 413.43&#10;            188.80 433.62 273.20 412.62&#10;            377.60 433.62 405.40 413.43&#10;            566.40 433.62 650.80 401.62&#10;            755.20 433.62 832.00 411.62&#10;            944.00 433.62 1028.40 413.43&#10;            1132.80 433.62 1191.60 413.43&#10;            1321.60 433.62 h 110 V 724.7 H -188.80 Z" fill="#303030"/><path id="11" d="M -188.80 473.98 S -154.00 447.98&#10;            0.00 473.98 82.80 453.80&#10;            188.80 473.98 273.20 447.98&#10;            377.60 473.98 382.40 453.80&#10;            566.40 473.98 650.80 453.80&#10;            755.20 473.98 827.00 453.80&#10;            944.00 473.98 996.80 453.80&#10;            1132.80 473.98 1171.60 453.80&#10;            1321.60 473.98 h 110 V 724.7 H -188.80 Z" fill="#1e1e1e"/><path id="12" d="M -188.80 514.34 S -104.40 494.16&#10;            0.00 514.34 84.40 494.16&#10;            188.80 514.34 273.20 476.34&#10;            377.60 514.34 462.00 478.34&#10;            566.40 514.34 650.80 494.16&#10;            755.20 514.34 839.60 488.34&#10;            944.00 514.34 1028.40 489.34&#10;            1132.80 514.34 1217.20 480.34&#10;            1321.60 514.34 h 110 V 724.7 H -188.80 Z" fill="#0c0c0c"/></g></svg>